<svg xmlns="http://www.w3.org/2000/svg" height="31" width="32"><path fill-opacity=".5" fill="#333" d="M31.2 10.6c.1-.5.1-.9.1-1.4 0-4.6-3.7-8.4-8.4-8.4-2.9 0-5.5 1.5-7 3.8-1.5-2.3-4.1-3.8-7-3.8C4.3.8.5 4.5.5 9.2c0 .5 0 .9.1 1.4C2 19.2 15.3 29.8 15.8 30.3c.5-.4 13.8-11.1 15.2-19.7"/><path fill="#FFF" d="M8.9 1.4c-4.3 0-7.8 3.5-7.8 7.8 0 .4 0 .9.1 1.3 1.2 7.7 12.5 17.2 14.7 19 2.2-1.8 13.4-11.3 14.7-19 .1-.4.1-.9.1-1.3 0-4.3-3.5-7.8-7.8-7.8-2.6 0-5.1 1.3-6.5 3.6-.1.2-.3.3-.5.3s-.4-.1-.5-.3C14 2.8 11.5 1.4 8.9 1.4m7 29.4c-.1 0-.2 0-.2-.1-.1 0-.1-.1-.2-.1-1.1-.9-14-11.4-15.4-20-.1-.5-.1-1-.1-1.5C0 4.2 4 .2 8.9.2c2.8 0 5.3 1.3 7 3.4 1.7-2.1 4.3-3.4 7-3.4 4.9 0 8.9 4 8.9 8.9 0 .5 0 1-.1 1.5-1.4 8.6-14.3 19.1-15.4 20 0 0-.1.1-.2.1s-.2.1-.3.1"/></svg>